<?xml version="1.0" encoding="UTF-8"?>
<svg id="Layer_1" data-name="Layer 1" xmlns="http://www.w3.org/2000/svg" viewBox="0 0 400 400">
  <defs>
    <style>
      .cls-1 {
        fill: #009ade;
      }
    </style>
  </defs>
  <path class="cls-1" d="M200,107.68l3.3,2.39c10.02-13.84,21-23.55,32.24-29.81,11.24-6.25,22.74-9.08,33.95-9.08,20.52,0,40.19,9.53,54.8,25.64,14.6,16.11,24.06,38.72,24.06,64.7,0,2.56-.09,5.15-.28,7.78-.67,9.4-3.43,18.99-7.83,28.58-7.68,16.78-20.39,33.51-35.19,49.06-22.18,23.33-49.01,44-70.25,58.77-10.62,7.39-19.85,13.32-26.41,17.39-3.28,2.04-5.9,3.61-7.69,4.67-.89.53-1.58.93-2.05,1.2-.23.13-.41.24-.52.3l-.17.1,2.01,3.54,2.01-3.54-.1-.05c-2.1-1.2-38.54-22.25-74.98-52.65-18.22-15.19-36.42-32.73-50.31-51.16-6.95-9.21-12.81-18.64-17.08-28.08-4.28-9.44-6.96-18.87-7.62-28.13-.19-2.62-.28-5.22-.28-7.78,0-25.97,9.46-48.59,24.06-64.7,14.61-16.11,34.28-25.65,54.8-25.64,11.21,0,22.71,2.83,33.95,9.08,11.24,6.26,22.22,15.96,32.24,29.81.77,1.06,1.99,1.69,3.3,1.69s2.53-.63,3.3-1.69l-3.3-2.39,3.3-2.39c-10.61-14.67-22.47-25.25-34.88-32.15-12.4-6.91-25.33-10.11-37.92-10.11-23.08,0-44.88,10.71-60.83,28.32-15.97,17.61-26.18,42.2-26.17,70.17,0,2.76.1,5.54.3,8.36.76,10.59,3.84,21.11,8.55,31.39,8.25,17.99,21.5,35.3,36.69,51.28,22.78,23.95,49.97,44.86,71.5,59.85,21.52,14.98,37.38,24,37.46,24.05,1.25.71,2.78.71,4.03,0,.12-.07,36.87-20.98,74.5-52.06,18.81-15.55,37.86-33.63,52.67-53.06,7.41-9.72,13.76-19.77,18.47-30.05,4.71-10.28,7.78-20.79,8.55-31.39.2-2.82.3-5.6.3-8.36,0-27.96-10.21-52.55-26.17-70.17-15.96-17.61-37.75-28.31-60.83-28.32-12.59,0-25.52,3.2-37.92,10.11-12.4,6.9-24.27,17.48-34.88,32.15l3.3,2.39,3.3-2.39-3.3,2.39Z"/>
</svg>