<?xml version="1.0" encoding="UTF-8"?>
<svg id="Layer_1" data-name="Layer 1" xmlns="http://www.w3.org/2000/svg" viewBox="0 0 400 400">
  <defs>
    <style>
      .cls-1 {
        fill: #009ade;
      }
    </style>
  </defs>
  <path class="cls-1" d="M56.13,202.41l143.87-124.54,143.87,124.54c1.7,1.47,4.27,1.29,5.74-.41,1.47-1.7,1.29-4.27-.41-5.74l-146.53-126.85c-1.53-1.33-3.8-1.33-5.33,0L50.8,196.25c-1.7,1.47-1.89,4.04-.41,5.74,1.47,1.7,4.04,1.89,5.74.41Z"/>
  <path class="cls-1" d="M303.59,165.68v157.77h-56.1s0-95.03,0-95.03c0-1.07-.43-2.12-1.19-2.88-.76-.76-1.81-1.19-2.88-1.19h-86.84c-1.07,0-2.12.43-2.88,1.19-.76.76-1.19,1.81-1.19,2.88v95.03h-56.1s0-157.77,0-157.77c0-2.25-1.82-4.07-4.07-4.07s-4.07,1.82-4.07,4.07v161.84c0,1.07.43,2.12,1.19,2.88.76.76,1.81,1.19,2.88,1.19h64.24c1.07,0,2.12-.43,2.88-1.19.76-.76,1.19-1.81,1.19-2.88v-95.03h78.7v95.03c0,1.07.43,2.12,1.19,2.88.76.76,1.81,1.19,2.88,1.19h64.24c1.07,0,2.12-.43,2.88-1.19.76-.76,1.19-1.81,1.19-2.88v-161.84c0-2.25-1.82-4.07-4.07-4.07s-4.07,1.82-4.07,4.07Z"/>
</svg>