<?xml version="1.0" encoding="UTF-8"?>
<svg id="Layer_1" data-name="Layer 1" xmlns="http://www.w3.org/2000/svg" viewBox="0 0 400 400">
  <defs>
    <style>
      .cls-1 {
        fill: #009ade;
      }
    </style>
  </defs>
  <path class="cls-1" d="M253.54,126.85v-41.75l93.26,93.26c1.59,1.59,4.17,1.59,5.76,0,1.59-1.59,1.59-4.17,0-5.76l-100.21-100.21c-1.16-1.16-2.92-1.51-4.44-.88-1.52.63-2.51,2.12-2.51,3.76v51.58c0,2.25,1.82,4.07,4.07,4.07s4.07-1.82,4.07-4.07Z"/>
  <path class="cls-1" d="M245.4,224.81v51.83c0,1.65.99,3.13,2.51,3.76,1.52.63,3.27.28,4.44-.88l100.21-100.21c.76-.76,1.19-1.81,1.19-2.88v-.95c0-1.07-.43-2.12-1.19-2.88l-100.21-100.21c-1.16-1.16-2.92-1.51-4.44-.88-1.52.63-2.51,2.12-2.51,3.76v51.58c0,2.25,1.82,4.07,4.07,4.07s4.07-1.82,4.07-4.07v-41.75l93.26,93.26,2.88-2.88h-4.07v.95h4.07l-2.88-2.88-93.26,93.26v-42c0-2.25-1.82-4.07-4.07-4.07s-4.07,1.82-4.07,4.07Z"/>
  <path class="cls-1" d="M250.18,220.8c-11.16-1.98-22.32-2.95-33.37-2.95-70.36,0-136.25,39.12-169.28,103.39h0s-.83,1.61-.83,1.61l3.62,1.87h4.07c0-53.53,21.68-101.96,56.76-137.04,35.08-35.08,83.51-56.76,137.04-56.76h1.28c2.25,0,4.07-1.82,4.07-4.07s-1.82-4.07-4.07-4.07h-1.28c-111.54,0-201.94,90.41-201.94,201.94,0,1.88,1.28,3.51,3.11,3.96,1.83.44,3.72-.42,4.58-2.09l.83-1.62h0c31.62-61.53,94.7-98.98,162.04-98.98,10.58,0,21.26.92,31.94,2.82,2.21.39,4.33-1.08,4.72-3.3.39-2.21-1.08-4.33-3.3-4.72Z"/>
</svg>