<?xml version="1.0" encoding="UTF-8"?>
<svg id="Layer_1" data-name="Layer 1" xmlns="http://www.w3.org/2000/svg" viewBox="0 0 400 400">
  <defs>
    <style>
      .cls-1 {
        fill: #009ade;
      }
    </style>
  </defs>
  <path class="cls-1" d="M124.66,204.13l-51.32,19.45h0c-18.12,6.88-30.1,24.23-30.1,43.6v29.01c0,.86.35,1.7.95,2.3.61.61,1.45.95,2.3.95h138.36c1.8,0,3.26-1.46,3.26-3.26s-1.46-3.26-3.26-3.26H49.75v-25.75c0-16.66,10.3-31.59,25.9-37.51h0s51.32-19.45,51.32-19.45c1.68-.64,2.53-2.52,1.89-4.2-.64-1.68-2.52-2.53-4.2-1.89h0Z"/>
  <path class="cls-1" d="M213.6,214.36l-26.99-10.23c-1.68-.64-3.56.21-4.2,1.89-.64,1.68.21,3.56,1.89,4.2l26.99,10.23c1.68.64,3.56-.21,4.2-1.89.64-1.68-.21-3.56-1.89-4.2"/>
  <path class="cls-1" d="M179.39,178.53l2.71,27.73-26.47,36.14-26.46-36.14,2.71-27.73-6.48-.63-2.83,28.97c-.08.8.14,1.59.61,2.24l29.83,40.73c.61.83,1.59,1.33,2.63,1.33s2.02-.5,2.63-1.33l29.83-40.73c.48-.65.69-1.44.61-2.24l-2.83-28.97-6.48.63h0Z"/>
  <path class="cls-1" d="M96.04,126.47v12.98c0,.19.02.42.06.61.5,2.6,1.25,5.24,2.57,7.68,1.32,2.43,3.29,4.68,6.04,6.15h0c3.63,1.95,6.62,5.07,8.56,8.8h0c4.52,8.62,10.49,16.99,17.62,23.34,3.57,3.17,7.43,5.84,11.57,7.74,4.14,1.89,8.57,3,13.18,3,4.6,0,9.04-1.11,13.18-3,6.21-2.84,11.79-7.42,16.69-12.85,4.89-5.44,9.1-11.76,12.49-18.21h0c1.96-3.74,4.94-6.86,8.56-8.81h0c2.75-1.47,4.72-3.72,6.04-6.16,1.33-2.44,2.07-5.08,2.57-7.68.04-.19.06-.42.06-.61v-14.6c0-1.8-1.46-3.26-3.26-3.26s-3.26,1.46-3.26,3.26v14.6h3.26l-3.2-.61c-.42,2.2-1.03,4.21-1.89,5.78-.87,1.58-1.92,2.73-3.41,3.54h0c-4.87,2.62-8.73,6.71-11.25,11.52h0c-4.21,8.05-9.82,15.84-16.17,21.49-3.17,2.83-6.52,5.11-9.94,6.68-3.43,1.56-6.91,2.41-10.47,2.41-3.55,0-7.04-.85-10.47-2.41-5.14-2.34-10.11-6.33-14.56-11.28-4.46-4.95-8.4-10.84-11.56-16.88h0c-2.51-4.82-6.39-8.91-11.26-11.53h0c-1.49-.81-2.53-1.95-3.41-3.53-.86-1.58-1.48-3.58-1.89-5.78l-3.2.61h3.26v-12.98c0-1.8-1.46-3.26-3.26-3.26s-3.26,1.46-3.26,3.26Z"/>
  <path class="cls-1" d="M104.75,73.4h-3.26v37.01c0,1.12.58,2.16,1.53,2.76.95.6,2.14.66,3.15.17l2.22-1.07c14.8-7.17,30.83-10.75,46.86-10.75,16.03,0,32.06,3.58,46.86,10.75l2.22,1.07c1.01.49,2.2.42,3.15-.17s1.53-1.64,1.53-2.76v-37.13c0-8-3.86-15.63-10.6-20.14-5.91-3.95-12.78-6.91-20.14-8.89-7.36-1.98-15.21-2.99-23.1-2.99-7.63,0-15.28.94-22.56,2.88-7.27,1.94-14.17,4.88-20.23,8.92-6.81,4.53-10.89,12.18-10.89,20.35h6.52c0-6,2.99-11.61,7.98-14.92,5.38-3.58,11.62-6.26,18.3-8.05,6.68-1.78,13.79-2.66,20.88-2.66,7.33,0,14.63.94,21.4,2.77,6.77,1.82,13,4.53,18.21,8.02,4.84,3.23,7.7,8.81,7.7,14.73v37.13h3.26l1.42-2.93-2.22-1.07c-15.69-7.6-32.7-11.4-49.7-11.4-17,0-34.01,3.8-49.7,11.4l-2.22,1.07,1.42,2.93h3.26v-37.01h-3.26Z"/>
  <path class="cls-1" d="M151.99,58.96v26.06c0,1.8,1.46,3.26,3.26,3.26s3.26-1.46,3.26-3.26v-26.06c0-1.8-1.46-3.26-3.26-3.26s-3.26,1.46-3.26,3.26"/>
  <path class="cls-1" d="M168.27,68.73h-26.06c-1.8,0-3.26,1.46-3.26,3.26s1.46,3.26,3.26,3.26h26.06c1.8,0,3.26-1.46,3.26-3.26s-1.46-3.26-3.26-3.26"/>
  <path class="cls-1" d="M340.57,232.56v-3.26h-22.41c-2.95,0-5.65,1.2-7.58,3.14-1.93,1.93-3.14,4.63-3.14,7.57,0,.73-.29,1.37-.77,1.85-.49.48-1.12.77-1.86.77h-51.04c-.74,0-1.37-.29-1.86-.77-.48-.49-.77-1.12-.77-1.85,0-2.95-1.21-5.65-3.14-7.58-1.93-1.93-4.63-3.14-7.58-3.14h-22.41c-4.46,0-8.53,1.82-11.45,4.74-2.93,2.92-4.75,6.99-4.74,11.45v97.07c0,4.46,1.82,8.53,4.74,11.45,2.92,2.92,6.99,4.74,11.45,4.74h122.56c4.46,0,8.53-1.82,11.45-4.74,2.93-2.92,4.75-6.99,4.74-11.45v-97.07c0-4.46-1.82-8.53-4.74-11.45-2.92-2.92-6.99-4.74-11.45-4.74v6.52c2.68,0,5.08,1.08,6.85,2.83,1.76,1.76,2.83,4.16,2.84,6.84v97.07c0,2.68-1.08,5.08-2.84,6.84-1.76,1.76-4.16,2.83-6.85,2.83h-122.56c-2.68,0-5.08-1.08-6.85-2.83-1.76-1.76-2.83-4.16-2.84-6.84v-97.07c0-2.68,1.08-5.08,2.84-6.84,1.76-1.76,4.16-2.83,6.85-2.83h22.41c1.17,0,2.2.47,2.97,1.23.77.77,1.23,1.8,1.23,2.97,0,2.51,1.03,4.82,2.68,6.46,1.64,1.65,3.95,2.68,6.46,2.68h51.04c2.51,0,4.82-1.03,6.46-2.68,1.65-1.64,2.68-3.95,2.68-6.46,0-1.17.46-2.2,1.23-2.97.77-.76,1.8-1.23,2.97-1.23h22.41v-3.26Z"/>
  <path class="cls-1" d="M251.13,220.94v-9.69c0-2.77,1.12-5.26,2.94-7.08,1.83-1.82,4.32-2.94,7.09-2.94h36.24c2.79,0,5.27,1.12,7.1,2.94,1.82,1.82,2.93,4.31,2.94,7.08v9.69c0,1.8,1.46,3.26,3.26,3.26s3.26-1.46,3.26-3.26v-9.69c0-4.55-1.86-8.71-4.85-11.69-2.98-2.99-7.14-4.84-11.7-4.84h-36.24c-4.55,0-8.71,1.86-11.7,4.84-2.99,2.98-4.85,7.13-4.85,11.69v9.69c0,1.8,1.46,3.26,3.26,3.26s3.26-1.46,3.26-3.26Z"/>
  <path class="cls-1" d="M311.83,288.58v-3.26h-17.09v-16.96c0-.86-.35-1.7-.95-2.3-.61-.61-1.45-.95-2.3-.95h-24.38c-.86,0-1.7.35-2.3.95-.61.61-.95,1.45-.95,2.3v16.96h-17.09c-.86,0-1.7.35-2.3.95-.61.61-.95,1.45-.95,2.3v24.22c0,.86.35,1.7.95,2.3.61.61,1.45.95,2.3.95h17.09v16.96c0,.86.35,1.7.95,2.3.61.61,1.45.95,2.3.95h24.38c.86,0,1.7-.35,2.3-.95.61-.61.95-1.45.95-2.3v-16.96h17.09c.86,0,1.7-.35,2.3-.95.61-.61.95-1.45.95-2.3v-24.22c0-.86-.35-1.7-.95-2.3-.61-.61-1.45-.95-2.3-.95v3.26h-3.26v20.97h-17.09c-.86,0-1.7.35-2.3.95-.61.61-.95,1.45-.95,2.3v16.96h-17.86v-16.96c0-.86-.35-1.7-.95-2.3-.61-.61-1.45-.95-2.3-.95h-17.09v-17.71h17.09c.86,0,1.7-.35,2.3-.95.61-.61.95-1.45.95-2.3v-16.96h17.86v16.96c0,.86.35,1.7.95,2.3.61.61,1.45.95,2.3.95h20.35v-3.26h-3.26,3.26Z"/>
</svg>