<?xml version="1.0" encoding="UTF-8"?>
<svg id="Layer_1" data-name="Layer 1" xmlns="http://www.w3.org/2000/svg" viewBox="0 0 400 400">
  <defs>
    <style>
      .cls-1 {
        fill: #009ade;
      }
    </style>
  </defs>
  <path class="cls-1" d="M277.64,200h3.26c0-22.33-9.06-42.57-23.69-57.2-14.63-14.63-34.88-23.7-57.2-23.69-22.33,0-42.57,9.06-57.2,23.69-14.63,14.63-23.7,34.87-23.69,57.2,0,22.33,9.06,42.57,23.69,57.2,14.63,14.63,34.88,23.7,57.2,23.69,22.33,0,42.57-9.06,57.2-23.69,14.63-14.63,23.7-34.87,23.69-57.2h-3.26s-3.26,0-3.26,0c0,20.55-8.32,39.13-21.79,52.6-13.47,13.47-32.05,21.78-52.6,21.79-20.55,0-39.13-8.32-52.6-21.79-13.47-13.47-21.78-32.05-21.79-52.6,0-20.55,8.32-39.13,21.79-52.6,13.47-13.47,32.05-21.78,52.6-21.79,20.55,0,39.13,8.32,52.6,21.79,13.47,13.47,21.79,32.05,21.79,52.6h3.26Z"/>
  <path class="cls-1" d="M341.27,224.13l3.21.55c1.39-8.12,2.11-16.38,2.11-24.71s-.69-16.43-2.1-24.65c-.23-1.34-1.26-2.39-2.6-2.65l-29.78-5.73-.62,3.2,3.15-.85c-1.33-4.93-2.96-9.85-4.97-14.73-2.02-4.87-4.35-9.5-6.9-13.93l-2.82,1.63,2.7,1.83,17.01-25.11c.76-1.12.75-2.6-.04-3.71-9.72-13.74-21.57-25.47-34.91-34.9-1.11-.78-2.58-.8-3.71-.04l-25.1,17,1.83,2.7,1.63-2.82c-8.99-5.19-18.63-9.18-28.66-11.87l-.84,3.15,3.2-.62-5.72-29.77c-.26-1.33-1.31-2.37-2.65-2.6-8.12-1.39-16.38-2.11-24.71-2.11-8.18,0-16.43.69-24.65,2.1-1.34.23-2.39,1.26-2.65,2.6l-5.73,29.78,3.2.62-.85-3.15c-4.93,1.33-9.85,2.96-14.73,4.97-4.87,2.02-9.5,4.35-13.93,6.9l1.63,2.82,1.83-2.7-25.11-17.01c-1.12-.76-2.6-.75-3.71.04-13.74,9.72-25.47,21.57-34.9,34.91-.78,1.11-.8,2.58-.04,3.71l17,25.1,2.7-1.83-2.82-1.63c-5.19,9-9.18,18.63-11.87,28.66l3.15.84-.61-3.2-29.77,5.72c-1.33.26-2.37,1.31-2.6,2.65-1.39,8.12-2.11,16.38-2.11,24.71s.69,16.43,2.1,24.65c.23,1.34,1.26,2.39,2.6,2.65l29.78,5.73.62-3.2-3.15.85c1.33,4.93,2.96,9.85,4.97,14.73,2.02,4.87,4.35,9.5,6.9,13.93l2.82-1.63-2.7-1.83-17.01,25.11c-.76,1.12-.75,2.6.04,3.71,9.72,13.74,21.57,25.47,34.91,34.9,1.11.78,2.58.8,3.71.04l25.1-17-1.83-2.7-1.63,2.82c9,5.19,18.63,9.18,28.66,11.87l.84-3.15-3.2.62,5.72,29.77c.26,1.33,1.31,2.37,2.65,2.6,8.12,1.39,16.38,2.11,24.71,2.11,8.18,0,16.43-.69,24.65-2.1,1.34-.23,2.39-1.26,2.65-2.6l5.73-29.78-3.2-.62.85,3.15c4.93-1.33,9.85-2.96,14.73-4.97,4.87-2.02,9.5-4.35,13.93-6.9l-1.63-2.82-1.83,2.7,25.11,17.01c1.12.76,2.6.75,3.71-.04,13.74-9.72,25.47-21.57,34.9-34.91.78-1.11.8-2.58.04-3.71l-17-25.1-2.7,1.83,2.82,1.63c5.19-9,9.18-18.63,11.87-28.66l-3.15-.84.62,3.2,29.77-5.72c1.33-.26,2.37-1.31,2.6-2.65l-3.21-.55-.62-3.2-29.77,5.72c-1.22.24-2.21,1.15-2.53,2.35-2.55,9.48-6.32,18.59-11.22,27.1-.62,1.08-.57,2.42.13,3.45l17,25.1,2.7-1.83-2.66-1.88c-9.01,12.74-20.21,24.06-33.34,33.35l1.88,2.66,1.83-2.7-25.11-17.01c-1.03-.7-2.37-.75-3.45-.13-4.21,2.42-8.59,4.62-13.17,6.52-4.58,1.9-9.23,3.44-13.93,4.7-1.2.32-2.12,1.31-2.35,2.53l-5.73,29.78,3.2.62-.55-3.21c-7.86,1.35-15.73,2.01-23.55,2.01-7.95,0-15.85-.68-23.61-2.02l-.55,3.21,3.2-.62-5.72-29.77c-.24-1.22-1.15-2.21-2.35-2.53-9.48-2.55-18.59-6.32-27.1-11.22-1.08-.62-2.42-.57-3.45.13l-25.1,17,1.83,2.7,1.88-2.66c-12.74-9.01-24.06-20.21-33.35-33.34l-2.66,1.88,2.7,1.83,17.01-25.11c.7-1.03.75-2.37.13-3.45-2.42-4.21-4.62-8.59-6.52-13.17-1.9-4.58-3.44-9.23-4.7-13.93-.32-1.2-1.31-2.12-2.53-2.35l-29.78-5.73-.62,3.2,3.21-.55c-1.35-7.86-2.01-15.73-2.01-23.55s.68-15.85,2.02-23.61l-3.21-.55.61,3.2,29.77-5.72c1.22-.24,2.21-1.15,2.53-2.35,2.55-9.48,6.32-18.59,11.22-27.1.62-1.08.57-2.42-.13-3.45l-17-25.1-2.7,1.83,2.66,1.88c9.01-12.74,20.21-24.06,33.34-33.35l-1.88-2.66-1.83,2.7,25.11,17.01c1.03.7,2.37.75,3.45.13,4.21-2.43,8.59-4.62,13.17-6.52,4.58-1.9,9.23-3.44,13.93-4.7,1.2-.32,2.12-1.31,2.35-2.53l5.73-29.78-3.2-.62.55,3.21c7.86-1.35,15.73-2.01,23.55-2.01,7.95,0,15.85.68,23.61,2.02l.55-3.21-3.2.62,5.72,29.77c.24,1.22,1.15,2.21,2.35,2.53,9.48,2.55,18.59,6.32,27.1,11.22,1.08.62,2.42.57,3.45-.13l25.1-17-1.83-2.7-1.88,2.66c12.74,9.01,24.06,20.21,33.35,33.34l2.66-1.88-2.7-1.83-17.01,25.11c-.7,1.03-.75,2.37-.13,3.45,2.42,4.21,4.62,8.59,6.52,13.17,1.9,4.58,3.44,9.23,4.7,13.93.32,1.2,1.31,2.12,2.53,2.35l29.78,5.73.62-3.2-3.21.55c1.35,7.86,2.01,15.73,2.01,23.55s-.68,15.85-2.01,23.61l3.21.55-.62-3.2.62,3.2Z"/>
  <path class="cls-1" d="M172.91,178.27h-3.26c0,8.87,3.33,16.95,8.77,22.82,5.43,5.88,13.05,9.59,21.47,9.58,8.42,0,16.04-3.7,21.47-9.58,5.44-5.88,8.77-13.96,8.77-22.82,0-8.87-3.33-16.95-8.77-22.83-5.43-5.88-13.05-9.59-21.47-9.58-8.42,0-16.04,3.7-21.47,9.58-5.44,5.88-8.77,13.96-8.77,22.83h6.52c0-7.23,2.71-13.73,7.04-18.4,4.33-4.67,10.2-7.49,16.69-7.49,6.48,0,12.35,2.82,16.69,7.49,4.32,4.67,7.04,11.17,7.04,18.4,0,7.23-2.71,13.73-7.04,18.4-4.33,4.67-10.2,7.49-16.69,7.49-6.48,0-12.35-2.82-16.69-7.49-4.32-4.67-7.04-11.17-7.04-18.4h-3.26Z"/>
  <path class="cls-1" d="M258.37,251.9c0-3.5-.93-7.12-2.51-10.66-2.38-5.3-6.26-10.43-11.23-14.34-2.49-1.95-5.25-3.6-8.26-4.76-3-1.16-6.24-1.84-9.61-1.84h-53.5c-8.72,0-16.65,3.55-22.36,9.26-5.72,5.71-9.27,13.64-9.26,22.36,0,1.8,1.46,3.26,3.26,3.26s3.26-1.46,3.26-3.26c0-6.95,2.81-13.2,7.36-17.76,4.55-4.55,10.81-7.35,17.76-7.36h53.5c3.33,0,6.54.89,9.54,2.43,4.5,2.31,8.47,6.15,11.25,10.38,1.39,2.11,2.48,4.31,3.21,6.42.73,2.11,1.1,4.13,1.1,5.86,0,1.8,1.46,3.26,3.26,3.26s3.26-1.46,3.26-3.26Z"/>
</svg>