<?xml version="1.0" encoding="UTF-8"?>
<svg id="Layer_1" data-name="Layer 1" xmlns="http://www.w3.org/2000/svg" viewBox="0 0 400 400">
  <defs>
    <style>
      .cls-1 {
        fill: #009ade;
      }
    </style>
  </defs>
  <path class="cls-1" d="M234.39,228.19l61.16,23.18c18.82,7.13,31.26,25.16,31.26,45.29v44.35H73.18v-44.34c0-20.12,12.45-38.15,31.26-45.29l61.16-23.18c1.68-.64,2.53-2.52,1.89-4.2-.64-1.68-2.52-2.53-4.2-1.89l-61.16,23.18c-21.35,8.09-35.47,28.55-35.47,51.38v47.6c0,.86.35,1.7.95,2.3.61.61,1.45.95,2.3.95h260.15c.86,0,1.7-.35,2.3-.95.61-.61.95-1.45.95-2.3v-47.6c0-22.83-14.12-43.28-35.47-51.38l-61.16-23.18c-1.68-.64-3.56.21-4.2,1.89-.64,1.68.21,3.56,1.89,4.2Z"/>
  <path class="cls-1" d="M228.94,190.96l3.52,32.95-32.46,44.26-32.46-44.26,3.52-32.95-6.48-.69-3.65,34.2c-.09.8.14,1.62.61,2.27l35.83,48.86c.61.83,1.59,1.33,2.63,1.33s2.02-.5,2.63-1.33l35.83-48.86c.48-.65.7-1.47.61-2.27l-3.65-34.2-6.48.69Z"/>
  <path class="cls-1" d="M254.79,268.49v55.38c0,1.8,1.46,3.26,3.26,3.26s3.26-1.46,3.26-3.26v-55.38c0-1.8-1.46-3.26-3.26-3.26s-3.26,1.46-3.26,3.26"/>
  <path class="cls-1" d="M285.56,292.92h-55.02c-1.8,0-3.26,1.46-3.26,3.26s1.46,3.26,3.26,3.26h55.02c1.8,0,3.26-1.46,3.26-3.26s-1.46-3.26-3.26-3.26"/>
  <path class="cls-1" d="M200,55.74v-3.26c-20.33,0-38.45,7.97-51.39,21.47-12.96,13.49-20.74,32.47-20.73,54.28,0,6.01.64,10.77,1.78,16.79.59,3.06,1.46,6.15,3,8.97,1.53,2.82,3.79,5.39,6.94,7.08,4.44,2.39,8.08,6.21,10.47,10.76,5.36,10.21,12.43,20.13,20.85,27.63,4.21,3.75,8.76,6.89,13.63,9.11,4.86,2.22,10.06,3.52,15.44,3.52,5.39,0,10.58-1.3,15.44-3.52,7.3-3.34,13.9-8.73,19.69-15.16,5.79-6.43,10.78-13.92,14.8-21.58,2.38-4.55,6.02-8.37,10.47-10.76,3.15-1.69,5.42-4.26,6.94-7.08,1.54-2.83,2.41-5.91,3-8.97,1.15-6.02,1.79-10.78,1.78-16.79,0-21.81-7.78-40.79-20.73-54.28-12.95-13.5-31.06-21.48-51.39-21.47v6.51c18.63,0,34.94,7.24,46.69,19.47,11.74,12.24,18.91,29.51,18.92,49.77,0,5.55-.56,9.7-1.67,15.57-.5,2.66-1.25,5.11-2.32,7.07-1.08,1.97-2.42,3.43-4.32,4.46-5.68,3.06-10.2,7.85-13.15,13.48-5.05,9.65-11.77,18.99-19.41,25.78-3.82,3.4-7.86,6.16-12.01,8.06-4.15,1.9-8.4,2.93-12.74,2.93-4.34,0-8.58-1.04-12.74-2.93-6.22-2.84-12.2-7.64-17.55-13.59-5.35-5.94-10.08-13.01-13.87-20.25-2.95-5.62-7.46-10.41-13.15-13.48-1.9-1.03-3.23-2.49-4.32-4.46-1.07-1.96-1.82-4.41-2.32-7.07-1.11-5.87-1.67-10.02-1.67-15.57,0-20.27,7.18-37.54,18.92-49.77,11.75-12.23,28.07-19.46,46.69-19.47v-3.26Z"/>
  <path class="cls-1" d="M177.11,94.9c.13.28,4.13,9.17,14.35,18.09,5.11,4.46,11.78,8.91,20.26,12.24,8.48,3.33,18.76,5.53,31.02,5.53,3.71,0,7.59-.2,11.67-.63,1.79-.19,3.09-1.79,2.9-3.58s-1.79-3.09-3.58-2.9c-3.86.4-7.51.59-10.99.59-11.49,0-20.92-2.04-28.64-5.07-11.58-4.55-19.36-11.34-24.26-16.99-2.45-2.82-4.17-5.36-5.27-7.16-.55-.9-.94-1.62-1.19-2.1-.12-.24-.21-.42-.27-.53l-.06-.12v-.02s-.96.43-.96.43l.95-.42h0s-.95.42-.95.42l.95-.42c-.73-1.64-2.66-2.38-4.3-1.64-1.64.73-2.38,2.66-1.64,4.3Z"/>
  <path class="cls-1" d="M184.55,97.43h-.15c-1.08,0-7.22.13-14.43,3.57-3.6,1.72-7.46,4.29-10.98,8.08-3.53,3.78-6.71,8.77-8.99,15.24-.6,1.7.29,3.56,1.98,4.16,1.7.6,3.56-.29,4.16-1.98,2.01-5.67,4.7-9.84,7.61-12.97,4.37-4.68,9.28-7.07,13.28-8.3,3.99-1.23,7.03-1.28,7.37-1.28h.03s.01-1,.01-1l-.02,1h0s.01-1,.01-1l-.02,1c1.8.04,3.29-1.39,3.32-3.19.04-1.8-1.39-3.29-3.19-3.32Z"/>
</svg>