<?xml version="1.0" encoding="UTF-8"?>
<svg id="Layer_1" data-name="Layer 1" xmlns="http://www.w3.org/2000/svg" viewBox="0 0 400 400">
  <defs>
    <style>
      .cls-1 {
        fill: #009ade;
      }
    </style>
  </defs>
  <path class="cls-1" d="M234.52,88.99l-2.88,2.88c19.31,19.31,28.94,44.58,28.95,69.88,0,25.31-9.64,50.58-28.95,69.88-19.31,19.31-44.58,28.94-69.88,28.95-25.31,0-50.58-9.64-69.88-28.95-19.31-19.31-28.94-44.58-28.95-69.88,0-25.31,9.64-50.58,28.95-69.88,19.31-19.31,44.58-28.94,69.88-28.95,25.31,0,50.58,9.64,69.88,28.95l2.88-2.88,2.88-2.88c-20.88-20.88-48.28-31.34-75.64-31.33-27.36,0-54.76,10.45-75.64,31.33-20.88,20.88-31.34,48.28-31.33,75.64,0,27.36,10.45,54.76,31.33,75.64,20.88,20.88,48.28,31.34,75.64,31.33,27.36,0,54.76-10.45,75.64-31.33,20.88-20.88,31.34-48.28,31.33-75.64,0-27.36-10.45-54.76-31.33-75.64l-2.88,2.88Z"/>
  <path class="cls-1" d="M231.64,237.4l106.62,106.62c1.59,1.59,4.17,1.59,5.76,0s1.59-4.17,0-5.76l-106.62-106.62c-1.59-1.59-4.17-1.59-5.76,0-1.59,1.59-1.59,4.17,0,5.76"/>
</svg>