<?xml version="1.0" encoding="UTF-8"?>
<svg id="Layer_1" data-name="Layer 1" xmlns="http://www.w3.org/2000/svg" viewBox="0 0 400 400">
  <defs>
    <style>
      .cls-1 {
        fill: #009ade;
      }
    </style>
  </defs>
  <path class="cls-1" d="M128.32,132.88c-16.29,0-29.54-13.25-29.54-29.53v-6.67c0-16.29,13.25-29.53,29.54-29.53h176.7v-7.59h-176.7c-20.48,0-37.14,16.65-37.14,37.13v206.64c0,9.91,3.86,19.24,10.88,26.25,7.02,7.01,16.34,10.87,26.26,10.87h143.36c9.92,0,19.24-3.86,26.26-10.87,7.01-7.01,10.88-16.34,10.88-26.25v-170.44h-180.49ZM98.78,303.32V125.82c6.07,7.95,15.27,13.36,25.75,14.43v192.34c-6.45-.82-12.42-3.71-17.1-8.38-5.58-5.58-8.65-13-8.65-20.88ZM301.22,303.32c0,7.89-3.07,15.3-8.65,20.88-5.58,5.58-13,8.65-20.89,8.65h-139.56v-192.38h169.11v162.85Z"/>
  <rect class="cls-1" x="122.55" y="87.59" width="182.47" height="7.59"/>
  <rect class="cls-1" x="122.55" y="105.92" width="182.47" height="7.59"/>
  <path class="cls-1" d="M259.43,220.37v-3.26h-23.22v-23.25c0-.86-.35-1.7-.95-2.3-.61-.61-1.45-.95-2.3-.95h-32.56c-.86,0-1.7.35-2.3.95-.61.61-.95,1.45-.95,2.3v23.25h-23.22c-.86,0-1.7.35-2.3.95-.61.61-.95,1.45-.95,2.3v32.6c0,.86.35,1.7.95,2.3.61.61,1.45.95,2.3.95h23.22v23.25c0,.86.35,1.7.95,2.3.61.61,1.45.95,2.3.95h32.56c.86,0,1.7-.35,2.3-.95.61-.61.95-1.45.95-2.3v-23.25h23.22c.86,0,1.7-.35,2.3-.95.61-.61.95-1.45.95-2.3v-32.6c0-.86-.35-1.7-.95-2.3-.61-.61-1.45-.95-2.3-.95v3.26h-3.26v29.35h-23.22c-.86,0-1.7.35-2.3.95-.61.61-.95,1.45-.95,2.3v23.25h-26.05s0-23.25,0-23.25c0-.86-.35-1.7-.95-2.3-.61-.61-1.45-.95-2.3-.95h-23.22v-26.09h23.22c.86,0,1.7-.35,2.3-.95.61-.61.95-1.45.95-2.3v-23.25h26.05s0,23.25,0,23.25c0,.86.35,1.7.95,2.3.61.61,1.45.95,2.3.95h26.48v-3.26h-3.26,3.26Z"/>
</svg>