<?xml version="1.0" encoding="UTF-8"?>
<svg id="Layer_1" xmlns="http://www.w3.org/2000/svg" version="1.1" viewBox="0 0 159.3 100.7">
  <!-- Generator: Adobe Illustrator 29.2.1, SVG Export Plug-In . SVG Version: 2.1.0 Build 116)  -->
  <defs>
    <style>
      .st0, .st1, .st2 {
        fill-rule: evenodd;
      }

      .st0, .st3 {
        fill: #fff;
      }

      .st1 {
        fill: #1694d2;
        stroke: #1694d2;
        stroke-width: 2px;
      }

      .st2 {
        fill: #54c0e8;
      }
    </style>
  </defs>
  <path class="st0" d="M756.6-190.3c-1,.3-2,.6-2.9.9"/>
  <g>
    <path class="st2" d="M116.7,66.1c-6.5,3.3-28.9,4.7-46.3,3.3-17.5-1.4-26.3-4.7-29.8-10.4,5,3.8,8.1,6.5,26.1,7.8,18,1.3,38.7.1,45.7-2.3,7-2.5,6.5-6.4,2.4-8.5,5.7,2.3,8.4,6.7,1.9,10.1Z"/>
    <path class="st3" d="M111,48.7h-3c0,8.4-3.4,16.1-8.9,21.6-5.5,5.5-13.2,8.9-21.6,8.9-8.4,0-16.1-3.4-21.6-8.9-5.5-5.5-8.9-13.2-8.9-21.6,0-8.4,3.4-16.1,8.9-21.6,5.5-5.5,13.2-8.9,21.6-8.9,8.4,0,16.1,3.4,21.6,8.9,5.5,5.5,8.9,13.2,8.9,21.6h6c0-10.1-4.1-19.2-10.7-25.8-6.6-6.6-15.8-10.7-25.8-10.7-10.1,0-19.2,4.1-25.8,10.7-6.6,6.6-10.7,15.8-10.7,25.8,0,10.1,4.1,19.2,10.7,25.8,6.6,6.6,15.8,10.7,25.8,10.7,10.1,0,19.2-4.1,25.8-10.7,6.6-6.6,10.7-15.8,10.7-25.8h-3Z"/>
    <path class="st1" d="M89.2,85.4c3.4-3.7-2.1-9.5-2.3-11.3-.2-1.6,2.7-18,3.5-18.8,1.4-1.5,2.9-4.6,4-7.8,2-5.9,6.7-3.3,11.3-7.3,3.1-2.7,7-3.9,10.9-4.4,6.3-.8,18-9.8,20.8-13.2,4.6-.4,7.3-3.2,9.4-6-.2-.8-.5-1.6-.7-2.4-.6,0-1.2.2-1.7.2-10,6.9-3.1,1-4.6,1.6-2.1.8-3.2.6-3.7,1.3-1.6,2-.3,1.4-1.8,2.9-3.2,3.1-12,2.1-14.7,4.6-6.9,6.3-15.7.7-21,4.7-4.1-.5-8.2.7-12.6,1.6-.9-2.1-.7-2.6.4-5.4,1.9-2,4.4-3.2,3.7-7.4-.7-4.2-5.9-7.7-11.4-6.4-5.5,1.2-7.5,8.9-8.6,11.7-1.3,3.6,5,3.3,2.7,8.2-2.3-.2-4.5-.4-6.6-.7-1.6-1.1-15.5-3.8-19.5-3.2-2.2-.6-5-2.2-6.9-3-2.2-2.2-15.4-1.6-18.7-3.8-3.7-2.5-1.1-4-7-6-1,.6.8.9,1.4,2.2-.8-.5-2.5-.6-5.6-3-.7.2-1.4.5-2.1.7,1.2,3.3,6.2,6.7,7.2,7,6.7,1.3,13.8,10.1,22.6,12.3,1.1.8,3.6.8,4.8,1.5,2.3,2.3,16.4,6.1,18.4,6.9-1.1,4.8-2.3,10.4-1.2,11.8,1.2,1.4,3.1,5.9,3.2,6.7.2,7.3,1.4,10.9,2.9,18.3.2,2.4-.7,4.8-.5,7.3,0,0,14.9,8.9,24.2-1.3Z"/>
    <path class="st0" d="M89.2,85.3c3.4-3.7-2.1-9.5-2.3-11.3-.2-1.6,2.7-18,3.5-18.8,1.4-1.5,2.9-4.6,4-7.8,2-5.9,6.7-3.3,11.3-7.3,3.1-2.7,7-3.9,10.9-4.4,6.3-.8,18-9.8,20.8-13.2,4.6-.4,7.3-3.2,9.4-6-.2-.8-.5-1.6-.7-2.4-.6,0-1.2.2-1.7.2-10,6.9-3.1,1-4.6,1.6-2.1.8-3.2.6-3.7,1.3-1.6,2-.3,1.4-1.8,2.9-3.2,3.1-12,2.1-14.7,4.6-6.9,6.3-15.7.7-21,4.7-4.1-.5-8.2.7-12.6,1.6-.9-2.1-.7-2.6.4-5.4,1.9-2,4.4-3.2,3.7-7.4-.7-4.2-5.9-7.7-11.4-6.4-5.5,1.2-7.5,8.9-8.6,11.7-1.3,3.6,5,3.3,2.7,8.2-2.3-.2-4.5-.4-6.6-.7-1.6-1.1-15.5-3.8-19.5-3.2-2.2-.6-5-2.2-6.9-3-2.2-2.2-15.4-1.6-18.7-3.8-3.7-2.5-1.1-4-7-6-1,.6.8.9,1.4,2.2-.8-.5-2.5-.6-5.6-3-.7.2-1.4.5-2.1.7,1.2,3.3,6.2,6.7,7.2,7,6.7,1.3,13.8,10.1,22.6,12.3,1.1.8,3.6.8,4.8,1.5,2.3,2.3,16.4,6.1,18.4,6.9-1.1,4.8-2.3,10.4-1.2,11.8,1.2,1.4,3.1,5.9,3.2,6.7.2,7.3,1.4,10.9,2.9,18.3.2,2.4-.7,4.8-.5,7.3,0,0,14.9,8.9,24.2-1.3Z"/>
    <path class="st2" d="M39.4,49.9c6.4-4.3,28.6-5.6,45.8-2.4,17.1,3.2,27.9,8.1,30.7,11.9-4.8-3-8.6-5.5-26.5-8.6-17.8-3.2-38.9-1.9-45.8,1.2-6.9,3.1-6.3,8.4-2.2,11.4-5.7-3.3-8.4-9.2-2.1-13.5Z"/>
  </g>
</svg>